ISO-10303-21;
HEADER;
FILE_DESCRIPTION(('FreeCAD Model'),'2;1');
FILE_NAME('Open CASCADE Shape Model','2026-08-10T13:25:36',('Author'),(
    ''),'Open CASCADE STEP processor 7.8','FreeCAD','Unknown');
FILE_SCHEMA(('AUTOMOTIVE_DESIGN { 1 0 10303 214 1 1 1 1 }'));
ENDSEC;
DATA;
#1 = APPLICATION_PROTOCOL_DEFINITION('international standard',
  'automotive_design',2000,#2);
#2 = APPLICATION_CONTEXT(
  'core data for automotive mechanical design processes');
#3 = SHAPE_DEFINITION_REPRESENTATION(#4,#10);
#4 = PRODUCT_DEFINITION_SHAPE('','',#5);
#5 = PRODUCT_DEFINITION('design','',#6,#9);
#6 = PRODUCT_DEFINITION_FORMATION('','',#7);
#7 = PRODUCT('Body','Body','',(#8));
#8 = PRODUCT_CONTEXT('',#2,'mechanical');
#9 = PRODUCT_DEFINITION_CONTEXT('part definition',#2,'design');
#10 = ADVANCED_BREP_SHAPE_REPRESENTATION('',(#11,#15),#1152);
#11 = AXIS2_PLACEMENT_3D('',#12,#13,#14);
#12 = CARTESIAN_POINT('',(0.,0.,0.));
#13 = DIRECTION('',(0.,0.,1.));
#14 = DIRECTION('',(1.,0.,-0.));
#15 = MANIFOLD_SOLID_BREP('',#16);
#16 = CLOSED_SHELL('',(#17,#57,#88,#153,#234,#315,#398,#481,#512,#536,
    #560,#577,#601,#682,#699,#727,#744,#827,#844,#861,#878,#895,#912,
    #929,#946,#963,#980,#992,#1009,#1026,#1043,#1060,#1077,#1094,#1106,
    #1118,#1143));
#17 = ADVANCED_FACE('',(#18),#52,.F.);
#18 = FACE_BOUND('',#19,.F.);
#19 = EDGE_LOOP('',(#20,#30,#38,#46));
#20 = ORIENTED_EDGE('',*,*,#21,.T.);
#21 = EDGE_CURVE('',#22,#24,#26,.T.);
#22 = VERTEX_POINT('',#23);
#23 = CARTESIAN_POINT('',(-20.,0.,-20.));
#24 = VERTEX_POINT('',#25);
#25 = CARTESIAN_POINT('',(-20.,-20.,-20.));
#26 = LINE('',#27,#28);
#27 = CARTESIAN_POINT('',(-20.,-8.88E-15,-20.));
#28 = VECTOR('',#29,1.);
#29 = DIRECTION('',(0.,-1.,4.4E-16));
#30 = ORIENTED_EDGE('',*,*,#31,.T.);
#31 = EDGE_CURVE('',#24,#32,#34,.T.);
#32 = VERTEX_POINT('',#33);
#33 = CARTESIAN_POINT('',(20.,-20.,-20.));
#34 = LINE('',#35,#36);
#35 = CARTESIAN_POINT('',(-20.,-20.,-20.));
#36 = VECTOR('',#37,1.);
#37 = DIRECTION('',(1.,0.,0.));
#38 = ORIENTED_EDGE('',*,*,#39,.F.);
#39 = EDGE_CURVE('',#40,#32,#42,.T.);
#40 = VERTEX_POINT('',#41);
#41 = CARTESIAN_POINT('',(20.,0.,-20.));
#42 = LINE('',#43,#44);
#43 = CARTESIAN_POINT('',(20.,-8.88E-15,-20.));
#44 = VECTOR('',#45,1.);
#45 = DIRECTION('',(0.,-1.,4.4E-16));
#46 = ORIENTED_EDGE('',*,*,#47,.F.);
#47 = EDGE_CURVE('',#22,#40,#48,.T.);
#48 = LINE('',#49,#50);
#49 = CARTESIAN_POINT('',(-20.,0.,-20.));
#50 = VECTOR('',#51,1.);
#51 = DIRECTION('',(1.,0.,0.));
#52 = PLANE('',#53);
#53 = AXIS2_PLACEMENT_3D('',#54,#55,#56);
#54 = CARTESIAN_POINT('',(-20.,-8.88E-15,-20.));
#55 = DIRECTION('',(0.,4.4E-16,1.));
#56 = DIRECTION('',(1.,0.,0.));
#57 = ADVANCED_FACE('',(#58),#83,.F.);
#58 = FACE_BOUND('',#59,.F.);
#59 = EDGE_LOOP('',(#60,#68,#76,#82));
#60 = ORIENTED_EDGE('',*,*,#61,.F.);
#61 = EDGE_CURVE('',#62,#22,#64,.T.);
#62 = VERTEX_POINT('',#63);
#63 = CARTESIAN_POINT('',(-20.,5.E-15,8.));
#64 = LINE('',#65,#66);
#65 = CARTESIAN_POINT('',(-20.,0.,20.));
#66 = VECTOR('',#67,1.);
#67 = DIRECTION('',(0.,0.,-1.));
#68 = ORIENTED_EDGE('',*,*,#69,.T.);
#69 = EDGE_CURVE('',#62,#70,#72,.T.);
#70 = VERTEX_POINT('',#71);
#71 = CARTESIAN_POINT('',(-20.,-20.,8.));
#72 = LINE('',#73,#74);
#73 = CARTESIAN_POINT('',(-20.,-5.,8.));
#74 = VECTOR('',#75,1.);
#75 = DIRECTION('',(0.,-1.,2.2E-16));
#76 = ORIENTED_EDGE('',*,*,#77,.T.);
#77 = EDGE_CURVE('',#70,#24,#78,.T.);
#78 = LINE('',#79,#80);
#79 = CARTESIAN_POINT('',(-20.,-20.,20.));
#80 = VECTOR('',#81,1.);
#81 = DIRECTION('',(0.,0.,-1.));
#82 = ORIENTED_EDGE('',*,*,#21,.F.);
#83 = PLANE('',#84);
#84 = AXIS2_PLACEMENT_3D('',#85,#86,#87);
#85 = CARTESIAN_POINT('',(-20.,8.88E-15,20.));
#86 = DIRECTION('',(1.,0.,0.));
#87 = DIRECTION('',(0.,-4.4E-16,-1.));
#88 = ADVANCED_FACE('',(#89,#114),#148,.F.);
#89 = FACE_BOUND('',#90,.F.);
#90 = EDGE_LOOP('',(#91,#99,#100,#108));
#91 = ORIENTED_EDGE('',*,*,#92,.F.);
#92 = EDGE_CURVE('',#40,#93,#95,.T.);
#93 = VERTEX_POINT('',#94);
#94 = CARTESIAN_POINT('',(20.,5.E-15,8.));
#95 = LINE('',#96,#97);
#96 = CARTESIAN_POINT('',(20.,0.,-20.));
#97 = VECTOR('',#98,1.);
#98 = DIRECTION('',(0.,0.,1.));
#99 = ORIENTED_EDGE('',*,*,#39,.T.);
#100 = ORIENTED_EDGE('',*,*,#101,.T.);
#101 = EDGE_CURVE('',#32,#102,#104,.T.);
#102 = VERTEX_POINT('',#103);
#103 = CARTESIAN_POINT('',(20.,-20.,8.));
#104 = LINE('',#105,#106);
#105 = CARTESIAN_POINT('',(20.,-20.,-20.));
#106 = VECTOR('',#107,1.);
#107 = DIRECTION('',(0.,0.,1.));
#108 = ORIENTED_EDGE('',*,*,#109,.T.);
#109 = EDGE_CURVE('',#102,#93,#110,.T.);
#110 = LINE('',#111,#112);
#111 = CARTESIAN_POINT('',(20.,-5.,8.));
#112 = VECTOR('',#113,1.);
#113 = DIRECTION('',(0.,1.,-2.2E-16));
#114 = FACE_BOUND('',#115,.F.);
#115 = EDGE_LOOP('',(#116,#126,#134,#142));
#116 = ORIENTED_EDGE('',*,*,#117,.T.);
#117 = EDGE_CURVE('',#118,#120,#122,.T.);
#118 = VERTEX_POINT('',#119);
#119 = CARTESIAN_POINT('',(20.,-14.,-13.));
#120 = VERTEX_POINT('',#121);
#121 = CARTESIAN_POINT('',(20.,-14.,-18.));
#122 = LINE('',#123,#124);
#123 = CARTESIAN_POINT('',(20.,-14.,-13.));
#124 = VECTOR('',#125,1.);
#125 = DIRECTION('',(0.,0.,-1.));
#126 = ORIENTED_EDGE('',*,*,#127,.T.);
#127 = EDGE_CURVE('',#120,#128,#130,.T.);
#128 = VERTEX_POINT('',#129);
#129 = CARTESIAN_POINT('',(20.,-6.,-18.));
#130 = LINE('',#131,#132);
#131 = CARTESIAN_POINT('',(20.,-14.,-18.));
#132 = VECTOR('',#133,1.);
#133 = DIRECTION('',(0.,1.,0.));
#134 = ORIENTED_EDGE('',*,*,#135,.T.);
#135 = EDGE_CURVE('',#128,#136,#138,.T.);
#136 = VERTEX_POINT('',#137);
#137 = CARTESIAN_POINT('',(20.,-6.,-13.));
#138 = LINE('',#139,#140);
#139 = CARTESIAN_POINT('',(20.,-6.,-18.));
#140 = VECTOR('',#141,1.);
#141 = DIRECTION('',(0.,0.,1.));
#142 = ORIENTED_EDGE('',*,*,#143,.T.);
#143 = EDGE_CURVE('',#136,#118,#144,.T.);
#144 = LINE('',#145,#146);
#145 = CARTESIAN_POINT('',(20.,-6.,-13.));
#146 = VECTOR('',#147,1.);
#147 = DIRECTION('',(0.,-1.,0.));
#148 = PLANE('',#149);
#149 = AXIS2_PLACEMENT_3D('',#150,#151,#152);
#150 = CARTESIAN_POINT('',(20.,-8.88E-15,-20.));
#151 = DIRECTION('',(-1.,0.,0.));
#152 = DIRECTION('',(0.,4.4E-16,1.));
#153 = ADVANCED_FACE('',(#154),#229,.T.);
#154 = FACE_BOUND('',#155,.T.);
#155 = EDGE_LOOP('',(#156,#157,#158,#166,#174,#182,#190,#198,#206,#214,
    #222,#228));
#156 = ORIENTED_EDGE('',*,*,#47,.F.);
#157 = ORIENTED_EDGE('',*,*,#61,.F.);
#158 = ORIENTED_EDGE('',*,*,#159,.T.);
#159 = EDGE_CURVE('',#62,#160,#162,.T.);
#160 = VERTEX_POINT('',#161);
#161 = CARTESIAN_POINT('',(-27.,5.E-15,8.));
#162 = LINE('',#163,#164);
#163 = CARTESIAN_POINT('',(27.,5.329070518201E-15,8.));
#164 = VECTOR('',#165,1.);
#165 = DIRECTION('',(-1.,0.,0.));
#166 = ORIENTED_EDGE('',*,*,#167,.T.);
#167 = EDGE_CURVE('',#160,#168,#170,.T.);
#168 = VERTEX_POINT('',#169);
#169 = CARTESIAN_POINT('',(-27.,7.E-15,11.));
#170 = LINE('',#171,#172);
#171 = CARTESIAN_POINT('',(-27.,7.11E-15,8.));
#172 = VECTOR('',#173,1.);
#173 = DIRECTION('',(0.,2.2E-16,1.));
#174 = ORIENTED_EDGE('',*,*,#175,.F.);
#175 = EDGE_CURVE('',#176,#168,#178,.T.);
#176 = VERTEX_POINT('',#177);
#177 = CARTESIAN_POINT('',(-20.,6.E-15,11.));
#178 = LINE('',#179,#180);
#179 = CARTESIAN_POINT('',(27.,8.881784197001E-15,11.));
#180 = VECTOR('',#181,1.);
#181 = DIRECTION('',(-1.,0.,0.));
#182 = ORIENTED_EDGE('',*,*,#183,.F.);
#183 = EDGE_CURVE('',#184,#176,#186,.T.);
#184 = VERTEX_POINT('',#185);
#185 = CARTESIAN_POINT('',(-20.,0.,20.));
#186 = LINE('',#187,#188);
#187 = CARTESIAN_POINT('',(-20.,0.,20.));
#188 = VECTOR('',#189,1.);
#189 = DIRECTION('',(0.,0.,-1.));
#190 = ORIENTED_EDGE('',*,*,#191,.F.);
#191 = EDGE_CURVE('',#192,#184,#194,.T.);
#192 = VERTEX_POINT('',#193);
#193 = CARTESIAN_POINT('',(20.,0.,20.));
#194 = LINE('',#195,#196);
#195 = CARTESIAN_POINT('',(20.,0.,20.));
#196 = VECTOR('',#197,1.);
#197 = DIRECTION('',(-1.,0.,0.));
#198 = ORIENTED_EDGE('',*,*,#199,.F.);
#199 = EDGE_CURVE('',#200,#192,#202,.T.);
#200 = VERTEX_POINT('',#201);
#201 = CARTESIAN_POINT('',(20.,6.E-15,11.));
#202 = LINE('',#203,#204);
#203 = CARTESIAN_POINT('',(20.,0.,-20.));
#204 = VECTOR('',#205,1.);
#205 = DIRECTION('',(0.,0.,1.));
#206 = ORIENTED_EDGE('',*,*,#207,.F.);
#207 = EDGE_CURVE('',#208,#200,#210,.T.);
#208 = VERTEX_POINT('',#209);
#209 = CARTESIAN_POINT('',(27.,7.E-15,11.));
#210 = LINE('',#211,#212);
#211 = CARTESIAN_POINT('',(27.,8.881784197001E-15,11.));
#212 = VECTOR('',#213,1.);
#213 = DIRECTION('',(-1.,0.,0.));
#214 = ORIENTED_EDGE('',*,*,#215,.F.);
#215 = EDGE_CURVE('',#216,#208,#218,.T.);
#216 = VERTEX_POINT('',#217);
#217 = CARTESIAN_POINT('',(27.,5.E-15,8.));
#218 = LINE('',#219,#220);
#219 = CARTESIAN_POINT('',(27.,7.11E-15,8.));
#220 = VECTOR('',#221,1.);
#221 = DIRECTION('',(0.,2.2E-16,1.));
#222 = ORIENTED_EDGE('',*,*,#223,.T.);
#223 = EDGE_CURVE('',#216,#93,#224,.T.);
#224 = LINE('',#225,#226);
#225 = CARTESIAN_POINT('',(27.,5.329070518201E-15,8.));
#226 = VECTOR('',#227,1.);
#227 = DIRECTION('',(-1.,0.,0.));
#228 = ORIENTED_EDGE('',*,*,#92,.F.);
#229 = PLANE('',#230);
#230 = AXIS2_PLACEMENT_3D('',#231,#232,#233);
#231 = CARTESIAN_POINT('',(0.,1.16E-15,1.414893617021));
#232 = DIRECTION('',(0.,1.,-4.6E-16));
#233 = DIRECTION('',(0.,-4.6E-16,-1.));
#234 = ADVANCED_FACE('',(#235),#310,.T.);
#235 = FACE_BOUND('',#236,.T.);
#236 = EDGE_LOOP('',(#237,#238,#239,#247,#255,#263,#271,#279,#287,#295,
    #303,#309));
#237 = ORIENTED_EDGE('',*,*,#31,.T.);
#238 = ORIENTED_EDGE('',*,*,#101,.T.);
#239 = ORIENTED_EDGE('',*,*,#240,.T.);
#240 = EDGE_CURVE('',#102,#241,#243,.T.);
#241 = VERTEX_POINT('',#242);
#242 = CARTESIAN_POINT('',(27.,-20.,8.));
#243 = LINE('',#244,#245);
#244 = CARTESIAN_POINT('',(-27.,-20.,8.));
#245 = VECTOR('',#246,1.);
#246 = DIRECTION('',(1.,3.E-17,0.));
#247 = ORIENTED_EDGE('',*,*,#248,.T.);
#248 = EDGE_CURVE('',#241,#249,#251,.T.);
#249 = VERTEX_POINT('',#250);
#250 = CARTESIAN_POINT('',(27.,-20.,11.));
#251 = LINE('',#252,#253);
#252 = CARTESIAN_POINT('',(27.,-20.,8.));
#253 = VECTOR('',#254,1.);
#254 = DIRECTION('',(0.,2.2E-16,1.));
#255 = ORIENTED_EDGE('',*,*,#256,.F.);
#256 = EDGE_CURVE('',#257,#249,#259,.T.);
#257 = VERTEX_POINT('',#258);
#258 = CARTESIAN_POINT('',(20.,-20.,11.));
#259 = LINE('',#260,#261);
#260 = CARTESIAN_POINT('',(-27.,-20.,11.));
#261 = VECTOR('',#262,1.);
#262 = DIRECTION('',(1.,3.E-17,0.));
#263 = ORIENTED_EDGE('',*,*,#264,.T.);
#264 = EDGE_CURVE('',#257,#265,#267,.T.);
#265 = VERTEX_POINT('',#266);
#266 = CARTESIAN_POINT('',(20.,-20.,20.));
#267 = LINE('',#268,#269);
#268 = CARTESIAN_POINT('',(20.,-20.,-20.));
#269 = VECTOR('',#270,1.);
#270 = DIRECTION('',(0.,0.,1.));
#271 = ORIENTED_EDGE('',*,*,#272,.T.);
#272 = EDGE_CURVE('',#265,#273,#275,.T.);
#273 = VERTEX_POINT('',#274);
#274 = CARTESIAN_POINT('',(-20.,-20.,20.));
#275 = LINE('',#276,#277);
#276 = CARTESIAN_POINT('',(20.,-20.,20.));
#277 = VECTOR('',#278,1.);
#278 = DIRECTION('',(-1.,0.,0.));
#279 = ORIENTED_EDGE('',*,*,#280,.T.);
#280 = EDGE_CURVE('',#273,#281,#283,.T.);
#281 = VERTEX_POINT('',#282);
#282 = CARTESIAN_POINT('',(-20.,-20.,11.));
#283 = LINE('',#284,#285);
#284 = CARTESIAN_POINT('',(-20.,-20.,20.));
#285 = VECTOR('',#286,1.);
#286 = DIRECTION('',(0.,0.,-1.));
#287 = ORIENTED_EDGE('',*,*,#288,.F.);
#288 = EDGE_CURVE('',#289,#281,#291,.T.);
#289 = VERTEX_POINT('',#290);
#290 = CARTESIAN_POINT('',(-27.,-20.,11.));
#291 = LINE('',#292,#293);
#292 = CARTESIAN_POINT('',(-27.,-20.,11.));
#293 = VECTOR('',#294,1.);
#294 = DIRECTION('',(1.,3.E-17,0.));
#295 = ORIENTED_EDGE('',*,*,#296,.F.);
#296 = EDGE_CURVE('',#297,#289,#299,.T.);
#297 = VERTEX_POINT('',#298);
#298 = CARTESIAN_POINT('',(-27.,-20.,8.));
#299 = LINE('',#300,#301);
#300 = CARTESIAN_POINT('',(-27.,-20.,8.));
#301 = VECTOR('',#302,1.);
#302 = DIRECTION('',(0.,2.2E-16,1.));
#303 = ORIENTED_EDGE('',*,*,#304,.T.);
#304 = EDGE_CURVE('',#297,#70,#305,.T.);
#305 = LINE('',#306,#307);
#306 = CARTESIAN_POINT('',(-27.,-20.,8.));
#307 = VECTOR('',#308,1.);
#308 = DIRECTION('',(1.,3.E-17,0.));
#309 = ORIENTED_EDGE('',*,*,#77,.T.);
#310 = PLANE('',#311);
#311 = AXIS2_PLACEMENT_3D('',#312,#313,#314);
#312 = CARTESIAN_POINT('',(0.,-20.,1.414893617021));
#313 = DIRECTION('',(0.,-1.,3.8E-16));
#314 = DIRECTION('',(0.,3.8E-16,1.));
#315 = ADVANCED_FACE('',(#316),#393,.F.);
#316 = FACE_BOUND('',#317,.F.);
#317 = EDGE_LOOP('',(#318,#326,#327,#328,#329,#337,#345,#354,#362,#370,
    #378,#387));
#318 = ORIENTED_EDGE('',*,*,#319,.T.);
#319 = EDGE_CURVE('',#320,#297,#322,.T.);
#320 = VERTEX_POINT('',#321);
#321 = CARTESIAN_POINT('',(-27.,-16.,8.));
#322 = LINE('',#323,#324);
#323 = CARTESIAN_POINT('',(-27.,5.329070518201E-15,8.));
#324 = VECTOR('',#325,1.);
#325 = DIRECTION('',(0.,-1.,0.));
#326 = ORIENTED_EDGE('',*,*,#304,.T.);
#327 = ORIENTED_EDGE('',*,*,#69,.F.);
#328 = ORIENTED_EDGE('',*,*,#159,.T.);
#329 = ORIENTED_EDGE('',*,*,#330,.T.);
#330 = EDGE_CURVE('',#160,#331,#333,.T.);
#331 = VERTEX_POINT('',#332);
#332 = CARTESIAN_POINT('',(-27.,-3.999999999994,8.));
#333 = LINE('',#334,#335);
#334 = CARTESIAN_POINT('',(-27.,5.329070518201E-15,8.));
#335 = VECTOR('',#336,1.);
#336 = DIRECTION('',(0.,-1.,0.));
#337 = ORIENTED_EDGE('',*,*,#338,.F.);
#338 = EDGE_CURVE('',#339,#331,#341,.T.);
#339 = VERTEX_POINT('',#340);
#340 = CARTESIAN_POINT('',(-25.7320508076,-4.000000000007,8.));
#341 = LINE('',#342,#343);
#342 = CARTESIAN_POINT('',(-12.86602540381,-3.999999999994,8.));
#343 = VECTOR('',#344,1.);
#344 = DIRECTION('',(-1.,-7.E-16,0.));
#345 = ORIENTED_EDGE('',*,*,#346,.F.);
#346 = EDGE_CURVE('',#347,#339,#349,.T.);
#347 = VERTEX_POINT('',#348);
#348 = CARTESIAN_POINT('',(-25.7320508076,-5.999999999983,8.));
#349 = CIRCLE('',#350,2.);
#350 = AXIS2_PLACEMENT_3D('',#351,#352,#353);
#351 = CARTESIAN_POINT('',(-24.,-5.,8.));
#352 = DIRECTION('',(0.,2.2E-16,1.));
#353 = DIRECTION('',(-1.,0.,0.));
#354 = ORIENTED_EDGE('',*,*,#355,.T.);
#355 = EDGE_CURVE('',#347,#356,#358,.T.);
#356 = VERTEX_POINT('',#357);
#357 = CARTESIAN_POINT('',(-27.,-6.000000000005,8.));
#358 = LINE('',#359,#360);
#359 = CARTESIAN_POINT('',(-12.86602540383,-5.999999999883,8.));
#360 = VECTOR('',#361,1.);
#361 = DIRECTION('',(-1.,-8.62016E-12,0.));
#362 = ORIENTED_EDGE('',*,*,#363,.T.);
#363 = EDGE_CURVE('',#356,#364,#366,.T.);
#364 = VERTEX_POINT('',#365);
#365 = CARTESIAN_POINT('',(-27.,-13.99999999999,8.));
#366 = LINE('',#367,#368);
#367 = CARTESIAN_POINT('',(-27.,5.329070518201E-15,8.));
#368 = VECTOR('',#369,1.);
#369 = DIRECTION('',(0.,-1.,0.));
#370 = ORIENTED_EDGE('',*,*,#371,.F.);
#371 = EDGE_CURVE('',#372,#364,#374,.T.);
#372 = VERTEX_POINT('',#373);
#373 = CARTESIAN_POINT('',(-25.7320508076,-14.00000000001,8.));
#374 = LINE('',#375,#376);
#375 = CARTESIAN_POINT('',(-12.86602540383,-14.00000000011,8.));
#376 = VECTOR('',#377,1.);
#377 = DIRECTION('',(-1.,8.62156E-12,0.));
#378 = ORIENTED_EDGE('',*,*,#379,.F.);
#379 = EDGE_CURVE('',#380,#372,#382,.T.);
#380 = VERTEX_POINT('',#381);
#381 = CARTESIAN_POINT('',(-25.7320508076,-15.99999999999,8.));
#382 = CIRCLE('',#383,2.);
#383 = AXIS2_PLACEMENT_3D('',#384,#385,#386);
#384 = CARTESIAN_POINT('',(-24.,-15.,8.));
#385 = DIRECTION('',(0.,2.2E-16,1.));
#386 = DIRECTION('',(-1.,0.,0.));
#387 = ORIENTED_EDGE('',*,*,#388,.T.);
#388 = EDGE_CURVE('',#380,#320,#389,.T.);
#389 = LINE('',#390,#391);
#390 = CARTESIAN_POINT('',(-12.86602540381,-16.,8.));
#391 = VECTOR('',#392,1.);
#392 = DIRECTION('',(-1.,0.,0.));
#393 = PLANE('',#394);
#394 = AXIS2_PLACEMENT_3D('',#395,#396,#397);
#395 = CARTESIAN_POINT('',(2.3E-15,-10.,8.));
#396 = DIRECTION('',(0.,0.,1.));
#397 = DIRECTION('',(1.,0.,0.));
#398 = ADVANCED_FACE('',(#399),#476,.F.);
#399 = FACE_BOUND('',#400,.F.);
#400 = EDGE_LOOP('',(#401,#402,#403,#411,#419,#428,#436,#444,#452,#461,
    #469,#475));
#401 = ORIENTED_EDGE('',*,*,#109,.F.);
#402 = ORIENTED_EDGE('',*,*,#240,.T.);
#403 = ORIENTED_EDGE('',*,*,#404,.T.);
#404 = EDGE_CURVE('',#241,#405,#407,.T.);
#405 = VERTEX_POINT('',#406);
#406 = CARTESIAN_POINT('',(27.,-16.,8.));
#407 = LINE('',#408,#409);
#408 = CARTESIAN_POINT('',(27.,-20.,8.));
#409 = VECTOR('',#410,1.);
#410 = DIRECTION('',(0.,1.,0.));
#411 = ORIENTED_EDGE('',*,*,#412,.F.);
#412 = EDGE_CURVE('',#413,#405,#415,.T.);
#413 = VERTEX_POINT('',#414);
#414 = CARTESIAN_POINT('',(25.732050807602,-15.99999999999,8.));
#415 = LINE('',#416,#417);
#416 = CARTESIAN_POINT('',(12.866025403812,-16.,8.));
#417 = VECTOR('',#418,1.);
#418 = DIRECTION('',(1.,0.,0.));
#419 = ORIENTED_EDGE('',*,*,#420,.F.);
#420 = EDGE_CURVE('',#421,#413,#423,.T.);
#421 = VERTEX_POINT('',#422);
#422 = CARTESIAN_POINT('',(25.732050807606,-14.00000000001,8.));
#423 = CIRCLE('',#424,2.);
#424 = AXIS2_PLACEMENT_3D('',#425,#426,#427);
#425 = CARTESIAN_POINT('',(24.,-15.,8.));
#426 = DIRECTION('',(0.,2.2E-16,1.));
#427 = DIRECTION('',(-1.,0.,0.));
#428 = ORIENTED_EDGE('',*,*,#429,.T.);
#429 = EDGE_CURVE('',#421,#430,#432,.T.);
#430 = VERTEX_POINT('',#431);
#431 = CARTESIAN_POINT('',(27.,-13.99999999999,8.));
#432 = LINE('',#433,#434);
#433 = CARTESIAN_POINT('',(12.86602540383,-14.00000000011,8.));
#434 = VECTOR('',#435,1.);
#435 = DIRECTION('',(1.,8.62156E-12,0.));
#436 = ORIENTED_EDGE('',*,*,#437,.T.);
#437 = EDGE_CURVE('',#430,#438,#440,.T.);
#438 = VERTEX_POINT('',#439);
#439 = CARTESIAN_POINT('',(27.,-6.000000000005,8.));
#440 = LINE('',#441,#442);
#441 = CARTESIAN_POINT('',(27.,-20.,8.));
#442 = VECTOR('',#443,1.);
#443 = DIRECTION('',(0.,1.,0.));
#444 = ORIENTED_EDGE('',*,*,#445,.F.);
#445 = EDGE_CURVE('',#446,#438,#448,.T.);
#446 = VERTEX_POINT('',#447);
#447 = CARTESIAN_POINT('',(25.732050807606,-5.999999999983,8.));
#448 = LINE('',#449,#450);
#449 = CARTESIAN_POINT('',(12.86602540383,-5.999999999883,8.));
#450 = VECTOR('',#451,1.);
#451 = DIRECTION('',(1.,-8.62016E-12,0.));
#452 = ORIENTED_EDGE('',*,*,#453,.F.);
#453 = EDGE_CURVE('',#454,#446,#456,.T.);
#454 = VERTEX_POINT('',#455);
#455 = CARTESIAN_POINT('',(25.732050807602,-4.000000000007,8.));
#456 = CIRCLE('',#457,2.);
#457 = AXIS2_PLACEMENT_3D('',#458,#459,#460);
#458 = CARTESIAN_POINT('',(24.,-5.,8.));
#459 = DIRECTION('',(0.,2.2E-16,1.));
#460 = DIRECTION('',(-1.,0.,0.));
#461 = ORIENTED_EDGE('',*,*,#462,.T.);
#462 = EDGE_CURVE('',#454,#463,#465,.T.);
#463 = VERTEX_POINT('',#464);
#464 = CARTESIAN_POINT('',(27.,-3.999999999994,8.));
#465 = LINE('',#466,#467);
#466 = CARTESIAN_POINT('',(12.866025403812,-3.999999999994,8.));
#467 = VECTOR('',#468,1.);
#468 = DIRECTION('',(1.,-7.E-16,0.));
#469 = ORIENTED_EDGE('',*,*,#470,.T.);
#470 = EDGE_CURVE('',#463,#216,#471,.T.);
#471 = LINE('',#472,#473);
#472 = CARTESIAN_POINT('',(27.,-20.,8.));
#473 = VECTOR('',#474,1.);
#474 = DIRECTION('',(0.,1.,0.));
#475 = ORIENTED_EDGE('',*,*,#223,.T.);
#476 = PLANE('',#477);
#477 = AXIS2_PLACEMENT_3D('',#478,#479,#480);
#478 = CARTESIAN_POINT('',(2.3E-15,-10.,8.));
#479 = DIRECTION('',(0.,0.,1.));
#480 = DIRECTION('',(1.,0.,0.));
#481 = ADVANCED_FACE('',(#482),#507,.F.);
#482 = FACE_BOUND('',#483,.F.);
#483 = EDGE_LOOP('',(#484,#492,#500,#506));
#484 = ORIENTED_EDGE('',*,*,#485,.T.);
#485 = EDGE_CURVE('',#118,#486,#488,.T.);
#486 = VERTEX_POINT('',#487);
#487 = CARTESIAN_POINT('',(30.,-14.,-13.));
#488 = LINE('',#489,#490);
#489 = CARTESIAN_POINT('',(20.,-14.,-13.));
#490 = VECTOR('',#491,1.);
#491 = DIRECTION('',(1.,0.,-2.2E-16));
#492 = ORIENTED_EDGE('',*,*,#493,.T.);
#493 = EDGE_CURVE('',#486,#494,#496,.T.);
#494 = VERTEX_POINT('',#495);
#495 = CARTESIAN_POINT('',(30.,-14.,-18.));
#496 = LINE('',#497,#498);
#497 = CARTESIAN_POINT('',(30.,-14.,-13.));
#498 = VECTOR('',#499,1.);
#499 = DIRECTION('',(0.,0.,-1.));
#500 = ORIENTED_EDGE('',*,*,#501,.F.);
#501 = EDGE_CURVE('',#120,#494,#502,.T.);
#502 = LINE('',#503,#504);
#503 = CARTESIAN_POINT('',(20.,-14.,-18.));
#504 = VECTOR('',#505,1.);
#505 = DIRECTION('',(1.,0.,-2.2E-16));
#506 = ORIENTED_EDGE('',*,*,#117,.F.);
#507 = PLANE('',#508);
#508 = AXIS2_PLACEMENT_3D('',#509,#510,#511);
#509 = CARTESIAN_POINT('',(20.,-14.,-13.));
#510 = DIRECTION('',(0.,1.,-2.2E-16));
#511 = DIRECTION('',(-2.2E-16,-2.2E-16,-1.));
#512 = ADVANCED_FACE('',(#513),#531,.F.);
#513 = FACE_BOUND('',#514,.F.);
#514 = EDGE_LOOP('',(#515,#523,#529,#530));
#515 = ORIENTED_EDGE('',*,*,#516,.T.);
#516 = EDGE_CURVE('',#136,#517,#519,.T.);
#517 = VERTEX_POINT('',#518);
#518 = CARTESIAN_POINT('',(30.,-6.,-13.));
#519 = LINE('',#520,#521);
#520 = CARTESIAN_POINT('',(20.,-6.,-13.));
#521 = VECTOR('',#522,1.);
#522 = DIRECTION('',(1.,0.,-2.2E-16));
#523 = ORIENTED_EDGE('',*,*,#524,.T.);
#524 = EDGE_CURVE('',#517,#486,#525,.T.);
#525 = LINE('',#526,#527);
#526 = CARTESIAN_POINT('',(30.,-6.,-13.));
#527 = VECTOR('',#528,1.);
#528 = DIRECTION('',(0.,-1.,0.));
#529 = ORIENTED_EDGE('',*,*,#485,.F.);
#530 = ORIENTED_EDGE('',*,*,#143,.F.);
#531 = PLANE('',#532);
#532 = AXIS2_PLACEMENT_3D('',#533,#534,#535);
#533 = CARTESIAN_POINT('',(20.,-6.,-13.));
#534 = DIRECTION('',(-2.2E-16,-2.2E-16,-1.));
#535 = DIRECTION('',(0.,-1.,2.2E-16));
#536 = ADVANCED_FACE('',(#537),#555,.F.);
#537 = FACE_BOUND('',#538,.F.);
#538 = EDGE_LOOP('',(#539,#547,#553,#554));
#539 = ORIENTED_EDGE('',*,*,#540,.T.);
#540 = EDGE_CURVE('',#128,#541,#543,.T.);
#541 = VERTEX_POINT('',#542);
#542 = CARTESIAN_POINT('',(30.,-6.,-18.));
#543 = LINE('',#544,#545);
#544 = CARTESIAN_POINT('',(20.,-6.,-18.));
#545 = VECTOR('',#546,1.);
#546 = DIRECTION('',(1.,0.,-2.2E-16));
#547 = ORIENTED_EDGE('',*,*,#548,.T.);
#548 = EDGE_CURVE('',#541,#517,#549,.T.);
#549 = LINE('',#550,#551);
#550 = CARTESIAN_POINT('',(30.,-6.,-18.));
#551 = VECTOR('',#552,1.);
#552 = DIRECTION('',(0.,0.,1.));
#553 = ORIENTED_EDGE('',*,*,#516,.F.);
#554 = ORIENTED_EDGE('',*,*,#135,.F.);
#555 = PLANE('',#556);
#556 = AXIS2_PLACEMENT_3D('',#557,#558,#559);
#557 = CARTESIAN_POINT('',(20.,-6.,-18.));
#558 = DIRECTION('',(0.,-1.,2.2E-16));
#559 = DIRECTION('',(2.2E-16,2.2E-16,1.));
#560 = ADVANCED_FACE('',(#561),#572,.F.);
#561 = FACE_BOUND('',#562,.F.);
#562 = EDGE_LOOP('',(#563,#564,#570,#571));
#563 = ORIENTED_EDGE('',*,*,#501,.T.);
#564 = ORIENTED_EDGE('',*,*,#565,.T.);
#565 = EDGE_CURVE('',#494,#541,#566,.T.);
#566 = LINE('',#567,#568);
#567 = CARTESIAN_POINT('',(30.,-14.,-18.));
#568 = VECTOR('',#569,1.);
#569 = DIRECTION('',(0.,1.,0.));
#570 = ORIENTED_EDGE('',*,*,#540,.F.);
#571 = ORIENTED_EDGE('',*,*,#127,.F.);
#572 = PLANE('',#573);
#573 = AXIS2_PLACEMENT_3D('',#574,#575,#576);
#574 = CARTESIAN_POINT('',(20.,-14.,-18.));
#575 = DIRECTION('',(2.2E-16,2.2E-16,1.));
#576 = DIRECTION('',(0.,1.,-2.2E-16));
#577 = ADVANCED_FACE('',(#578),#596,.F.);
#578 = FACE_BOUND('',#579,.F.);
#579 = EDGE_LOOP('',(#580,#581,#582,#590));
#580 = ORIENTED_EDGE('',*,*,#330,.F.);
#581 = ORIENTED_EDGE('',*,*,#167,.T.);
#582 = ORIENTED_EDGE('',*,*,#583,.T.);
#583 = EDGE_CURVE('',#168,#584,#586,.T.);
#584 = VERTEX_POINT('',#585);
#585 = CARTESIAN_POINT('',(-27.,-3.999999999994,11.));
#586 = LINE('',#587,#588);
#587 = CARTESIAN_POINT('',(-27.,8.881784197001E-15,11.));
#588 = VECTOR('',#589,1.);
#589 = DIRECTION('',(0.,-1.,0.));
#590 = ORIENTED_EDGE('',*,*,#591,.T.);
#591 = EDGE_CURVE('',#584,#331,#592,.T.);
#592 = LINE('',#593,#594);
#593 = CARTESIAN_POINT('',(-27.,-3.999999999994,81.815334497551));
#594 = VECTOR('',#595,1.);
#595 = DIRECTION('',(0.,-2.2E-16,-1.));
#596 = PLANE('',#597);
#597 = AXIS2_PLACEMENT_3D('',#598,#599,#600);
#598 = CARTESIAN_POINT('',(-27.,7.11E-15,8.));
#599 = DIRECTION('',(1.,0.,0.));
#600 = DIRECTION('',(0.,-1.,2.2E-16));
#601 = ADVANCED_FACE('',(#602),#677,.T.);
#602 = FACE_BOUND('',#603,.T.);
#603 = EDGE_LOOP('',(#604,#612,#613,#619,#620,#621,#629,#638,#646,#654,
    #662,#671));
#604 = ORIENTED_EDGE('',*,*,#605,.T.);
#605 = EDGE_CURVE('',#606,#289,#608,.T.);
#606 = VERTEX_POINT('',#607);
#607 = CARTESIAN_POINT('',(-27.,-16.,11.));
#608 = LINE('',#609,#610);
#609 = CARTESIAN_POINT('',(-27.,8.881784197001E-15,11.));
#610 = VECTOR('',#611,1.);
#611 = DIRECTION('',(0.,-1.,0.));
#612 = ORIENTED_EDGE('',*,*,#288,.T.);
#613 = ORIENTED_EDGE('',*,*,#614,.F.);
#614 = EDGE_CURVE('',#176,#281,#615,.T.);
#615 = LINE('',#616,#617);
#616 = CARTESIAN_POINT('',(-20.,-5.,11.));
#617 = VECTOR('',#618,1.);
#618 = DIRECTION('',(0.,-1.,2.2E-16));
#619 = ORIENTED_EDGE('',*,*,#175,.T.);
#620 = ORIENTED_EDGE('',*,*,#583,.T.);
#621 = ORIENTED_EDGE('',*,*,#622,.F.);
#622 = EDGE_CURVE('',#623,#584,#625,.T.);
#623 = VERTEX_POINT('',#624);
#624 = CARTESIAN_POINT('',(-25.7320508076,-4.000000000007,11.));
#625 = LINE('',#626,#627);
#626 = CARTESIAN_POINT('',(-12.86602540381,-3.999999999994,11.));
#627 = VECTOR('',#628,1.);
#628 = DIRECTION('',(-1.,-7.E-16,0.));
#629 = ORIENTED_EDGE('',*,*,#630,.F.);
#630 = EDGE_CURVE('',#631,#623,#633,.T.);
#631 = VERTEX_POINT('',#632);
#632 = CARTESIAN_POINT('',(-25.7320508076,-5.999999999983,11.));
#633 = CIRCLE('',#634,2.);
#634 = AXIS2_PLACEMENT_3D('',#635,#636,#637);
#635 = CARTESIAN_POINT('',(-24.,-5.,11.));
#636 = DIRECTION('',(0.,2.2E-16,1.));
#637 = DIRECTION('',(-1.,0.,0.));
#638 = ORIENTED_EDGE('',*,*,#639,.T.);
#639 = EDGE_CURVE('',#631,#640,#642,.T.);
#640 = VERTEX_POINT('',#641);
#641 = CARTESIAN_POINT('',(-27.,-6.000000000005,11.));
#642 = LINE('',#643,#644);
#643 = CARTESIAN_POINT('',(-12.86602540383,-5.999999999883,11.));
#644 = VECTOR('',#645,1.);
#645 = DIRECTION('',(-1.,-8.62016E-12,0.));
#646 = ORIENTED_EDGE('',*,*,#647,.T.);
#647 = EDGE_CURVE('',#640,#648,#650,.T.);
#648 = VERTEX_POINT('',#649);
#649 = CARTESIAN_POINT('',(-27.,-13.99999999999,11.));
#650 = LINE('',#651,#652);
#651 = CARTESIAN_POINT('',(-27.,8.881784197001E-15,11.));
#652 = VECTOR('',#653,1.);
#653 = DIRECTION('',(0.,-1.,0.));
#654 = ORIENTED_EDGE('',*,*,#655,.F.);
#655 = EDGE_CURVE('',#656,#648,#658,.T.);
#656 = VERTEX_POINT('',#657);
#657 = CARTESIAN_POINT('',(-25.7320508076,-14.00000000001,11.));
#658 = LINE('',#659,#660);
#659 = CARTESIAN_POINT('',(-12.86602540383,-14.00000000011,11.));
#660 = VECTOR('',#661,1.);
#661 = DIRECTION('',(-1.,8.62156E-12,0.));
#662 = ORIENTED_EDGE('',*,*,#663,.F.);
#663 = EDGE_CURVE('',#664,#656,#666,.T.);
#664 = VERTEX_POINT('',#665);
#665 = CARTESIAN_POINT('',(-25.7320508076,-15.99999999999,11.));
#666 = CIRCLE('',#667,2.);
#667 = AXIS2_PLACEMENT_3D('',#668,#669,#670);
#668 = CARTESIAN_POINT('',(-24.,-15.,11.));
#669 = DIRECTION('',(0.,2.2E-16,1.));
#670 = DIRECTION('',(-1.,0.,0.));
#671 = ORIENTED_EDGE('',*,*,#672,.T.);
#672 = EDGE_CURVE('',#664,#606,#673,.T.);
#673 = LINE('',#674,#675);
#674 = CARTESIAN_POINT('',(-12.86602540381,-16.,11.));
#675 = VECTOR('',#676,1.);
#676 = DIRECTION('',(-1.,0.,0.));
#677 = PLANE('',#678);
#678 = AXIS2_PLACEMENT_3D('',#679,#680,#681);
#679 = CARTESIAN_POINT('',(2.3E-15,-10.,11.));
#680 = DIRECTION('',(0.,0.,1.));
#681 = DIRECTION('',(1.,0.,0.));
#682 = ADVANCED_FACE('',(#683),#694,.F.);
#683 = FACE_BOUND('',#684,.F.);
#684 = EDGE_LOOP('',(#685,#686,#692,#693));
#685 = ORIENTED_EDGE('',*,*,#183,.F.);
#686 = ORIENTED_EDGE('',*,*,#687,.T.);
#687 = EDGE_CURVE('',#184,#273,#688,.T.);
#688 = LINE('',#689,#690);
#689 = CARTESIAN_POINT('',(-20.,8.88E-15,20.));
#690 = VECTOR('',#691,1.);
#691 = DIRECTION('',(0.,-1.,4.4E-16));
#692 = ORIENTED_EDGE('',*,*,#280,.T.);
#693 = ORIENTED_EDGE('',*,*,#614,.F.);
#694 = PLANE('',#695);
#695 = AXIS2_PLACEMENT_3D('',#696,#697,#698);
#696 = CARTESIAN_POINT('',(-20.,8.88E-15,20.));
#697 = DIRECTION('',(1.,0.,0.));
#698 = DIRECTION('',(0.,-4.4E-16,-1.));
#699 = ADVANCED_FACE('',(#700,#711),#722,.F.);
#700 = FACE_BOUND('',#701,.F.);
#701 = EDGE_LOOP('',(#702,#708,#709,#710));
#702 = ORIENTED_EDGE('',*,*,#703,.T.);
#703 = EDGE_CURVE('',#192,#265,#704,.T.);
#704 = LINE('',#705,#706);
#705 = CARTESIAN_POINT('',(20.,8.88E-15,20.));
#706 = VECTOR('',#707,1.);
#707 = DIRECTION('',(0.,-1.,4.4E-16));
#708 = ORIENTED_EDGE('',*,*,#272,.T.);
#709 = ORIENTED_EDGE('',*,*,#687,.F.);
#710 = ORIENTED_EDGE('',*,*,#191,.F.);
#711 = FACE_BOUND('',#712,.F.);
#712 = EDGE_LOOP('',(#713));
#713 = ORIENTED_EDGE('',*,*,#714,.T.);
#714 = EDGE_CURVE('',#715,#715,#717,.T.);
#715 = VERTEX_POINT('',#716);
#716 = CARTESIAN_POINT('',(7.,-10.,20.));
#717 = CIRCLE('',#718,3.);
#718 = AXIS2_PLACEMENT_3D('',#719,#720,#721);
#719 = CARTESIAN_POINT('',(10.,-10.,20.));
#720 = DIRECTION('',(0.,0.,1.));
#721 = DIRECTION('',(-1.,0.,0.));
#722 = PLANE('',#723);
#723 = AXIS2_PLACEMENT_3D('',#724,#725,#726);
#724 = CARTESIAN_POINT('',(20.,8.88E-15,20.));
#725 = DIRECTION('',(0.,-4.4E-16,-1.));
#726 = DIRECTION('',(-1.,0.,0.));
#727 = ADVANCED_FACE('',(#728),#739,.F.);
#728 = FACE_BOUND('',#729,.F.);
#729 = EDGE_LOOP('',(#730,#731,#737,#738));
#730 = ORIENTED_EDGE('',*,*,#199,.F.);
#731 = ORIENTED_EDGE('',*,*,#732,.F.);
#732 = EDGE_CURVE('',#257,#200,#733,.T.);
#733 = LINE('',#734,#735);
#734 = CARTESIAN_POINT('',(20.,-5.,11.));
#735 = VECTOR('',#736,1.);
#736 = DIRECTION('',(0.,1.,-2.2E-16));
#737 = ORIENTED_EDGE('',*,*,#264,.T.);
#738 = ORIENTED_EDGE('',*,*,#703,.F.);
#739 = PLANE('',#740);
#740 = AXIS2_PLACEMENT_3D('',#741,#742,#743);
#741 = CARTESIAN_POINT('',(20.,-8.88E-15,-20.));
#742 = DIRECTION('',(-1.,0.,0.));
#743 = DIRECTION('',(0.,4.4E-16,1.));
#744 = ADVANCED_FACE('',(#745),#822,.T.);
#745 = FACE_BOUND('',#746,.T.);
#746 = EDGE_LOOP('',(#747,#748,#749,#757,#765,#774,#782,#790,#798,#807,
    #815,#821));
#747 = ORIENTED_EDGE('',*,*,#732,.F.);
#748 = ORIENTED_EDGE('',*,*,#256,.T.);
#749 = ORIENTED_EDGE('',*,*,#750,.T.);
#750 = EDGE_CURVE('',#249,#751,#753,.T.);
#751 = VERTEX_POINT('',#752);
#752 = CARTESIAN_POINT('',(27.,-16.,11.));
#753 = LINE('',#754,#755);
#754 = CARTESIAN_POINT('',(27.,-20.,11.));
#755 = VECTOR('',#756,1.);
#756 = DIRECTION('',(0.,1.,0.));
#757 = ORIENTED_EDGE('',*,*,#758,.F.);
#758 = EDGE_CURVE('',#759,#751,#761,.T.);
#759 = VERTEX_POINT('',#760);
#760 = CARTESIAN_POINT('',(25.732050807602,-15.99999999999,11.));
#761 = LINE('',#762,#763);
#762 = CARTESIAN_POINT('',(12.866025403812,-16.,11.));
#763 = VECTOR('',#764,1.);
#764 = DIRECTION('',(1.,0.,0.));
#765 = ORIENTED_EDGE('',*,*,#766,.F.);
#766 = EDGE_CURVE('',#767,#759,#769,.T.);
#767 = VERTEX_POINT('',#768);
#768 = CARTESIAN_POINT('',(25.732050807606,-14.00000000001,11.));
#769 = CIRCLE('',#770,2.);
#770 = AXIS2_PLACEMENT_3D('',#771,#772,#773);
#771 = CARTESIAN_POINT('',(24.,-15.,11.));
#772 = DIRECTION('',(0.,2.2E-16,1.));
#773 = DIRECTION('',(-1.,0.,0.));
#774 = ORIENTED_EDGE('',*,*,#775,.T.);
#775 = EDGE_CURVE('',#767,#776,#778,.T.);
#776 = VERTEX_POINT('',#777);
#777 = CARTESIAN_POINT('',(27.,-13.99999999999,11.));
#778 = LINE('',#779,#780);
#779 = CARTESIAN_POINT('',(12.86602540383,-14.00000000011,11.));
#780 = VECTOR('',#781,1.);
#781 = DIRECTION('',(1.,8.62156E-12,0.));
#782 = ORIENTED_EDGE('',*,*,#783,.T.);
#783 = EDGE_CURVE('',#776,#784,#786,.T.);
#784 = VERTEX_POINT('',#785);
#785 = CARTESIAN_POINT('',(27.,-6.000000000005,11.));
#786 = LINE('',#787,#788);
#787 = CARTESIAN_POINT('',(27.,-20.,11.));
#788 = VECTOR('',#789,1.);
#789 = DIRECTION('',(0.,1.,0.));
#790 = ORIENTED_EDGE('',*,*,#791,.F.);
#791 = EDGE_CURVE('',#792,#784,#794,.T.);
#792 = VERTEX_POINT('',#793);
#793 = CARTESIAN_POINT('',(25.732050807606,-5.999999999983,11.));
#794 = LINE('',#795,#796);
#795 = CARTESIAN_POINT('',(12.86602540383,-5.999999999883,11.));
#796 = VECTOR('',#797,1.);
#797 = DIRECTION('',(1.,-8.62016E-12,0.));
#798 = ORIENTED_EDGE('',*,*,#799,.F.);
#799 = EDGE_CURVE('',#800,#792,#802,.T.);
#800 = VERTEX_POINT('',#801);
#801 = CARTESIAN_POINT('',(25.732050807602,-4.000000000007,11.));
#802 = CIRCLE('',#803,2.);
#803 = AXIS2_PLACEMENT_3D('',#804,#805,#806);
#804 = CARTESIAN_POINT('',(24.,-5.,11.));
#805 = DIRECTION('',(0.,2.2E-16,1.));
#806 = DIRECTION('',(-1.,0.,0.));
#807 = ORIENTED_EDGE('',*,*,#808,.T.);
#808 = EDGE_CURVE('',#800,#809,#811,.T.);
#809 = VERTEX_POINT('',#810);
#810 = CARTESIAN_POINT('',(27.,-3.999999999994,11.));
#811 = LINE('',#812,#813);
#812 = CARTESIAN_POINT('',(12.866025403812,-3.999999999994,11.));
#813 = VECTOR('',#814,1.);
#814 = DIRECTION('',(1.,-7.E-16,0.));
#815 = ORIENTED_EDGE('',*,*,#816,.T.);
#816 = EDGE_CURVE('',#809,#208,#817,.T.);
#817 = LINE('',#818,#819);
#818 = CARTESIAN_POINT('',(27.,-20.,11.));
#819 = VECTOR('',#820,1.);
#820 = DIRECTION('',(0.,1.,0.));
#821 = ORIENTED_EDGE('',*,*,#207,.T.);
#822 = PLANE('',#823);
#823 = AXIS2_PLACEMENT_3D('',#824,#825,#826);
#824 = CARTESIAN_POINT('',(2.3E-15,-10.,11.));
#825 = DIRECTION('',(0.,0.,1.));
#826 = DIRECTION('',(1.,0.,0.));
#827 = ADVANCED_FACE('',(#828),#839,.F.);
#828 = FACE_BOUND('',#829,.F.);
#829 = EDGE_LOOP('',(#830,#831,#837,#838));
#830 = ORIENTED_EDGE('',*,*,#470,.F.);
#831 = ORIENTED_EDGE('',*,*,#832,.F.);
#832 = EDGE_CURVE('',#809,#463,#833,.T.);
#833 = LINE('',#834,#835);
#834 = CARTESIAN_POINT('',(27.,-3.999999999994,81.815334497551));
#835 = VECTOR('',#836,1.);
#836 = DIRECTION('',(0.,-2.2E-16,-1.));
#837 = ORIENTED_EDGE('',*,*,#816,.T.);
#838 = ORIENTED_EDGE('',*,*,#215,.F.);
#839 = PLANE('',#840);
#840 = AXIS2_PLACEMENT_3D('',#841,#842,#843);
#841 = CARTESIAN_POINT('',(27.,-20.,8.));
#842 = DIRECTION('',(-1.,0.,0.));
#843 = DIRECTION('',(0.,1.,-2.2E-16));
#844 = ADVANCED_FACE('',(#845),#856,.F.);
#845 = FACE_BOUND('',#846,.F.);
#846 = EDGE_LOOP('',(#847,#848,#849,#850));
#847 = ORIENTED_EDGE('',*,*,#404,.F.);
#848 = ORIENTED_EDGE('',*,*,#248,.T.);
#849 = ORIENTED_EDGE('',*,*,#750,.T.);
#850 = ORIENTED_EDGE('',*,*,#851,.T.);
#851 = EDGE_CURVE('',#751,#405,#852,.T.);
#852 = LINE('',#853,#854);
#853 = CARTESIAN_POINT('',(27.,-16.,81.815334497551));
#854 = VECTOR('',#855,1.);
#855 = DIRECTION('',(0.,-2.2E-16,-1.));
#856 = PLANE('',#857);
#857 = AXIS2_PLACEMENT_3D('',#858,#859,#860);
#858 = CARTESIAN_POINT('',(27.,-20.,8.));
#859 = DIRECTION('',(-1.,0.,0.));
#860 = DIRECTION('',(0.,1.,-2.2E-16));
#861 = ADVANCED_FACE('',(#862),#873,.F.);
#862 = FACE_BOUND('',#863,.F.);
#863 = EDGE_LOOP('',(#864,#865,#871,#872));
#864 = ORIENTED_EDGE('',*,*,#319,.F.);
#865 = ORIENTED_EDGE('',*,*,#866,.F.);
#866 = EDGE_CURVE('',#606,#320,#867,.T.);
#867 = LINE('',#868,#869);
#868 = CARTESIAN_POINT('',(-27.,-16.,81.815334497551));
#869 = VECTOR('',#870,1.);
#870 = DIRECTION('',(0.,-2.2E-16,-1.));
#871 = ORIENTED_EDGE('',*,*,#605,.T.);
#872 = ORIENTED_EDGE('',*,*,#296,.F.);
#873 = PLANE('',#874);
#874 = AXIS2_PLACEMENT_3D('',#875,#876,#877);
#875 = CARTESIAN_POINT('',(-27.,7.11E-15,8.));
#876 = DIRECTION('',(1.,0.,0.));
#877 = DIRECTION('',(0.,-1.,2.2E-16));
#878 = ADVANCED_FACE('',(#879),#890,.T.);
#879 = FACE_BOUND('',#880,.T.);
#880 = EDGE_LOOP('',(#881,#882,#888,#889));
#881 = ORIENTED_EDGE('',*,*,#672,.F.);
#882 = ORIENTED_EDGE('',*,*,#883,.T.);
#883 = EDGE_CURVE('',#664,#380,#884,.T.);
#884 = LINE('',#885,#886);
#885 = CARTESIAN_POINT('',(-25.7320508076,-15.99999999999,
    81.815334497551));
#886 = VECTOR('',#887,1.);
#887 = DIRECTION('',(0.,-2.2E-16,-1.));
#888 = ORIENTED_EDGE('',*,*,#388,.T.);
#889 = ORIENTED_EDGE('',*,*,#866,.F.);
#890 = PLANE('',#891);
#891 = AXIS2_PLACEMENT_3D('',#892,#893,#894);
#892 = CARTESIAN_POINT('',(-25.73205080762,-16.,81.815334497551));
#893 = DIRECTION('',(0.,1.,-2.2E-16));
#894 = DIRECTION('',(-1.,0.,0.));
#895 = ADVANCED_FACE('',(#896),#907,.F.);
#896 = FACE_BOUND('',#897,.F.);
#897 = EDGE_LOOP('',(#898,#899,#900,#901));
#898 = ORIENTED_EDGE('',*,*,#663,.F.);
#899 = ORIENTED_EDGE('',*,*,#883,.T.);
#900 = ORIENTED_EDGE('',*,*,#379,.T.);
#901 = ORIENTED_EDGE('',*,*,#902,.F.);
#902 = EDGE_CURVE('',#656,#372,#903,.T.);
#903 = LINE('',#904,#905);
#904 = CARTESIAN_POINT('',(-25.7320508076,-14.00000000001,
    81.815334497551));
#905 = VECTOR('',#906,1.);
#906 = DIRECTION('',(0.,-2.2E-16,-1.));
#907 = CYLINDRICAL_SURFACE('',#908,2.);
#908 = AXIS2_PLACEMENT_3D('',#909,#910,#911);
#909 = CARTESIAN_POINT('',(-24.,-15.,81.815334497551));
#910 = DIRECTION('',(0.,2.2E-16,1.));
#911 = DIRECTION('',(-1.,0.,0.));
#912 = ADVANCED_FACE('',(#913),#924,.F.);
#913 = FACE_BOUND('',#914,.F.);
#914 = EDGE_LOOP('',(#915,#916,#917,#918));
#915 = ORIENTED_EDGE('',*,*,#655,.F.);
#916 = ORIENTED_EDGE('',*,*,#902,.T.);
#917 = ORIENTED_EDGE('',*,*,#371,.T.);
#918 = ORIENTED_EDGE('',*,*,#919,.F.);
#919 = EDGE_CURVE('',#648,#364,#920,.T.);
#920 = LINE('',#921,#922);
#921 = CARTESIAN_POINT('',(-27.,-13.99999999999,81.815334497551));
#922 = VECTOR('',#923,1.);
#923 = DIRECTION('',(0.,-2.2E-16,-1.));
#924 = PLANE('',#925);
#925 = AXIS2_PLACEMENT_3D('',#926,#927,#928);
#926 = CARTESIAN_POINT('',(-25.73205080762,-14.,81.815334497551));
#927 = DIRECTION('',(8.62156E-12,1.,-2.2E-16));
#928 = DIRECTION('',(-1.,8.62156E-12,0.));
#929 = ADVANCED_FACE('',(#930),#941,.F.);
#930 = FACE_BOUND('',#931,.F.);
#931 = EDGE_LOOP('',(#932,#933,#939,#940));
#932 = ORIENTED_EDGE('',*,*,#363,.F.);
#933 = ORIENTED_EDGE('',*,*,#934,.F.);
#934 = EDGE_CURVE('',#640,#356,#935,.T.);
#935 = LINE('',#936,#937);
#936 = CARTESIAN_POINT('',(-27.,-6.000000000005,81.815334497551));
#937 = VECTOR('',#938,1.);
#938 = DIRECTION('',(0.,-2.2E-16,-1.));
#939 = ORIENTED_EDGE('',*,*,#647,.T.);
#940 = ORIENTED_EDGE('',*,*,#919,.T.);
#941 = PLANE('',#942);
#942 = AXIS2_PLACEMENT_3D('',#943,#944,#945);
#943 = CARTESIAN_POINT('',(-27.,7.11E-15,8.));
#944 = DIRECTION('',(1.,0.,0.));
#945 = DIRECTION('',(0.,-1.,2.2E-16));
#946 = ADVANCED_FACE('',(#947),#958,.T.);
#947 = FACE_BOUND('',#948,.T.);
#948 = EDGE_LOOP('',(#949,#950,#956,#957));
#949 = ORIENTED_EDGE('',*,*,#639,.F.);
#950 = ORIENTED_EDGE('',*,*,#951,.T.);
#951 = EDGE_CURVE('',#631,#347,#952,.T.);
#952 = LINE('',#953,#954);
#953 = CARTESIAN_POINT('',(-25.7320508076,-5.999999999983,
    81.815334497551));
#954 = VECTOR('',#955,1.);
#955 = DIRECTION('',(0.,-2.2E-16,-1.));
#956 = ORIENTED_EDGE('',*,*,#355,.T.);
#957 = ORIENTED_EDGE('',*,*,#934,.F.);
#958 = PLANE('',#959);
#959 = AXIS2_PLACEMENT_3D('',#960,#961,#962);
#960 = CARTESIAN_POINT('',(-25.73205080762,-5.999999999994,
    81.815334497551));
#961 = DIRECTION('',(-8.62016E-12,1.,-2.2E-16));
#962 = DIRECTION('',(-1.,-8.62016E-12,0.));
#963 = ADVANCED_FACE('',(#964),#975,.F.);
#964 = FACE_BOUND('',#965,.F.);
#965 = EDGE_LOOP('',(#966,#967,#968,#969));
#966 = ORIENTED_EDGE('',*,*,#630,.F.);
#967 = ORIENTED_EDGE('',*,*,#951,.T.);
#968 = ORIENTED_EDGE('',*,*,#346,.T.);
#969 = ORIENTED_EDGE('',*,*,#970,.F.);
#970 = EDGE_CURVE('',#623,#339,#971,.T.);
#971 = LINE('',#972,#973);
#972 = CARTESIAN_POINT('',(-25.7320508076,-4.000000000007,
    81.815334497551));
#973 = VECTOR('',#974,1.);
#974 = DIRECTION('',(0.,-2.2E-16,-1.));
#975 = CYLINDRICAL_SURFACE('',#976,2.);
#976 = AXIS2_PLACEMENT_3D('',#977,#978,#979);
#977 = CARTESIAN_POINT('',(-24.,-5.,81.815334497551));
#978 = DIRECTION('',(0.,2.2E-16,1.));
#979 = DIRECTION('',(-1.,0.,0.));
#980 = ADVANCED_FACE('',(#981),#987,.F.);
#981 = FACE_BOUND('',#982,.F.);
#982 = EDGE_LOOP('',(#983,#984,#985,#986));
#983 = ORIENTED_EDGE('',*,*,#622,.F.);
#984 = ORIENTED_EDGE('',*,*,#970,.T.);
#985 = ORIENTED_EDGE('',*,*,#338,.T.);
#986 = ORIENTED_EDGE('',*,*,#591,.F.);
#987 = PLANE('',#988);
#988 = AXIS2_PLACEMENT_3D('',#989,#990,#991);
#989 = CARTESIAN_POINT('',(-25.73205080762,-3.999999999994,
    81.815334497551));
#990 = DIRECTION('',(-7.E-16,1.,-2.2E-16));
#991 = DIRECTION('',(-1.,-7.E-16,0.));
#992 = ADVANCED_FACE('',(#993),#1004,.T.);
#993 = FACE_BOUND('',#994,.T.);
#994 = EDGE_LOOP('',(#995,#996,#1002,#1003));
#995 = ORIENTED_EDGE('',*,*,#808,.F.);
#996 = ORIENTED_EDGE('',*,*,#997,.T.);
#997 = EDGE_CURVE('',#800,#454,#998,.T.);
#998 = LINE('',#999,#1000);
#999 = CARTESIAN_POINT('',(25.732050807602,-4.000000000007,
    81.815334497551));
#1000 = VECTOR('',#1001,1.);
#1001 = DIRECTION('',(0.,-2.2E-16,-1.));
#1002 = ORIENTED_EDGE('',*,*,#462,.T.);
#1003 = ORIENTED_EDGE('',*,*,#832,.F.);
#1004 = PLANE('',#1005);
#1005 = AXIS2_PLACEMENT_3D('',#1006,#1007,#1008);
#1006 = CARTESIAN_POINT('',(25.732050807624,-3.999999999994,
    81.815334497551));
#1007 = DIRECTION('',(-7.E-16,-1.,2.2E-16));
#1008 = DIRECTION('',(1.,-7.E-16,0.));
#1009 = ADVANCED_FACE('',(#1010),#1021,.F.);
#1010 = FACE_BOUND('',#1011,.F.);
#1011 = EDGE_LOOP('',(#1012,#1013,#1014,#1015));
#1012 = ORIENTED_EDGE('',*,*,#799,.F.);
#1013 = ORIENTED_EDGE('',*,*,#997,.T.);
#1014 = ORIENTED_EDGE('',*,*,#453,.T.);
#1015 = ORIENTED_EDGE('',*,*,#1016,.F.);
#1016 = EDGE_CURVE('',#792,#446,#1017,.T.);
#1017 = LINE('',#1018,#1019);
#1018 = CARTESIAN_POINT('',(25.732050807606,-5.999999999983,
    81.815334497551));
#1019 = VECTOR('',#1020,1.);
#1020 = DIRECTION('',(0.,-2.2E-16,-1.));
#1021 = CYLINDRICAL_SURFACE('',#1022,2.);
#1022 = AXIS2_PLACEMENT_3D('',#1023,#1024,#1025);
#1023 = CARTESIAN_POINT('',(24.,-5.,81.815334497551));
#1024 = DIRECTION('',(0.,2.2E-16,1.));
#1025 = DIRECTION('',(-1.,0.,0.));
#1026 = ADVANCED_FACE('',(#1027),#1038,.F.);
#1027 = FACE_BOUND('',#1028,.F.);
#1028 = EDGE_LOOP('',(#1029,#1030,#1031,#1032));
#1029 = ORIENTED_EDGE('',*,*,#791,.F.);
#1030 = ORIENTED_EDGE('',*,*,#1016,.T.);
#1031 = ORIENTED_EDGE('',*,*,#445,.T.);
#1032 = ORIENTED_EDGE('',*,*,#1033,.F.);
#1033 = EDGE_CURVE('',#784,#438,#1034,.T.);
#1034 = LINE('',#1035,#1036);
#1035 = CARTESIAN_POINT('',(27.,-6.000000000005,81.815334497551));
#1036 = VECTOR('',#1037,1.);
#1037 = DIRECTION('',(0.,-2.2E-16,-1.));
#1038 = PLANE('',#1039);
#1039 = AXIS2_PLACEMENT_3D('',#1040,#1041,#1042);
#1040 = CARTESIAN_POINT('',(25.732050807626,-5.999999999994,
    81.815334497551));
#1041 = DIRECTION('',(-8.62016E-12,-1.,2.2E-16));
#1042 = DIRECTION('',(1.,-8.62016E-12,0.));
#1043 = ADVANCED_FACE('',(#1044),#1055,.F.);
#1044 = FACE_BOUND('',#1045,.F.);
#1045 = EDGE_LOOP('',(#1046,#1047,#1053,#1054));
#1046 = ORIENTED_EDGE('',*,*,#437,.F.);
#1047 = ORIENTED_EDGE('',*,*,#1048,.F.);
#1048 = EDGE_CURVE('',#776,#430,#1049,.T.);
#1049 = LINE('',#1050,#1051);
#1050 = CARTESIAN_POINT('',(27.,-13.99999999999,81.815334497551));
#1051 = VECTOR('',#1052,1.);
#1052 = DIRECTION('',(0.,-2.2E-16,-1.));
#1053 = ORIENTED_EDGE('',*,*,#783,.T.);
#1054 = ORIENTED_EDGE('',*,*,#1033,.T.);
#1055 = PLANE('',#1056);
#1056 = AXIS2_PLACEMENT_3D('',#1057,#1058,#1059);
#1057 = CARTESIAN_POINT('',(27.,-20.,8.));
#1058 = DIRECTION('',(-1.,0.,0.));
#1059 = DIRECTION('',(0.,1.,-2.2E-16));
#1060 = ADVANCED_FACE('',(#1061),#1072,.T.);
#1061 = FACE_BOUND('',#1062,.T.);
#1062 = EDGE_LOOP('',(#1063,#1064,#1070,#1071));
#1063 = ORIENTED_EDGE('',*,*,#775,.F.);
#1064 = ORIENTED_EDGE('',*,*,#1065,.T.);
#1065 = EDGE_CURVE('',#767,#421,#1066,.T.);
#1066 = LINE('',#1067,#1068);
#1067 = CARTESIAN_POINT('',(25.732050807606,-14.00000000001,
    81.815334497551));
#1068 = VECTOR('',#1069,1.);
#1069 = DIRECTION('',(0.,-2.2E-16,-1.));
#1070 = ORIENTED_EDGE('',*,*,#429,.T.);
#1071 = ORIENTED_EDGE('',*,*,#1048,.F.);
#1072 = PLANE('',#1073);
#1073 = AXIS2_PLACEMENT_3D('',#1074,#1075,#1076);
#1074 = CARTESIAN_POINT('',(25.732050807626,-14.,81.815334497551));
#1075 = DIRECTION('',(8.62156E-12,-1.,2.2E-16));
#1076 = DIRECTION('',(1.,8.62156E-12,0.));
#1077 = ADVANCED_FACE('',(#1078),#1089,.F.);
#1078 = FACE_BOUND('',#1079,.F.);
#1079 = EDGE_LOOP('',(#1080,#1081,#1082,#1083));
#1080 = ORIENTED_EDGE('',*,*,#766,.F.);
#1081 = ORIENTED_EDGE('',*,*,#1065,.T.);
#1082 = ORIENTED_EDGE('',*,*,#420,.T.);
#1083 = ORIENTED_EDGE('',*,*,#1084,.F.);
#1084 = EDGE_CURVE('',#759,#413,#1085,.T.);
#1085 = LINE('',#1086,#1087);
#1086 = CARTESIAN_POINT('',(25.732050807602,-15.99999999999,
    81.815334497551));
#1087 = VECTOR('',#1088,1.);
#1088 = DIRECTION('',(0.,-2.2E-16,-1.));
#1089 = CYLINDRICAL_SURFACE('',#1090,2.);
#1090 = AXIS2_PLACEMENT_3D('',#1091,#1092,#1093);
#1091 = CARTESIAN_POINT('',(24.,-15.,81.815334497551));
#1092 = DIRECTION('',(0.,2.2E-16,1.));
#1093 = DIRECTION('',(-1.,0.,0.));
#1094 = ADVANCED_FACE('',(#1095),#1101,.F.);
#1095 = FACE_BOUND('',#1096,.F.);
#1096 = EDGE_LOOP('',(#1097,#1098,#1099,#1100));
#1097 = ORIENTED_EDGE('',*,*,#758,.F.);
#1098 = ORIENTED_EDGE('',*,*,#1084,.T.);
#1099 = ORIENTED_EDGE('',*,*,#412,.T.);
#1100 = ORIENTED_EDGE('',*,*,#851,.F.);
#1101 = PLANE('',#1102);
#1102 = AXIS2_PLACEMENT_3D('',#1103,#1104,#1105);
#1103 = CARTESIAN_POINT('',(25.732050807624,-16.,81.815334497551));
#1104 = DIRECTION('',(0.,-1.,2.2E-16));
#1105 = DIRECTION('',(1.,0.,0.));
#1106 = ADVANCED_FACE('',(#1107),#1113,.T.);
#1107 = FACE_BOUND('',#1108,.T.);
#1108 = EDGE_LOOP('',(#1109,#1110,#1111,#1112));
#1109 = ORIENTED_EDGE('',*,*,#565,.T.);
#1110 = ORIENTED_EDGE('',*,*,#548,.T.);
#1111 = ORIENTED_EDGE('',*,*,#524,.T.);
#1112 = ORIENTED_EDGE('',*,*,#493,.T.);
#1113 = PLANE('',#1114);
#1114 = AXIS2_PLACEMENT_3D('',#1115,#1116,#1117);
#1115 = CARTESIAN_POINT('',(30.,-10.,-15.5));
#1116 = DIRECTION('',(1.,0.,0.));
#1117 = DIRECTION('',(0.,0.,1.));
#1118 = ADVANCED_FACE('',(#1119),#1138,.T.);
#1119 = FACE_BOUND('',#1120,.F.);
#1120 = EDGE_LOOP('',(#1121,#1129,#1136,#1137));
#1121 = ORIENTED_EDGE('',*,*,#1122,.T.);
#1122 = EDGE_CURVE('',#715,#1123,#1125,.T.);
#1123 = VERTEX_POINT('',#1124);
#1124 = CARTESIAN_POINT('',(7.,-10.,26.));
#1125 = LINE('',#1126,#1127);
#1126 = CARTESIAN_POINT('',(7.,-10.,20.));
#1127 = VECTOR('',#1128,1.);
#1128 = DIRECTION('',(0.,2.2E-16,1.));
#1129 = ORIENTED_EDGE('',*,*,#1130,.T.);
#1130 = EDGE_CURVE('',#1123,#1123,#1131,.T.);
#1131 = CIRCLE('',#1132,3.);
#1132 = AXIS2_PLACEMENT_3D('',#1133,#1134,#1135);
#1133 = CARTESIAN_POINT('',(10.,-10.,26.));
#1134 = DIRECTION('',(0.,0.,1.));
#1135 = DIRECTION('',(-1.,0.,0.));
#1136 = ORIENTED_EDGE('',*,*,#1122,.F.);
#1137 = ORIENTED_EDGE('',*,*,#714,.F.);
#1138 = CYLINDRICAL_SURFACE('',#1139,3.);
#1139 = AXIS2_PLACEMENT_3D('',#1140,#1141,#1142);
#1140 = CARTESIAN_POINT('',(10.,-10.,20.));
#1141 = DIRECTION('',(0.,-2.2E-16,-1.));
#1142 = DIRECTION('',(-1.,0.,0.));
#1143 = ADVANCED_FACE('',(#1144),#1147,.T.);
#1144 = FACE_BOUND('',#1145,.T.);
#1145 = EDGE_LOOP('',(#1146));
#1146 = ORIENTED_EDGE('',*,*,#1130,.T.);
#1147 = PLANE('',#1148);
#1148 = AXIS2_PLACEMENT_3D('',#1149,#1150,#1151);
#1149 = CARTESIAN_POINT('',(10.,-10.,26.));
#1150 = DIRECTION('',(0.,0.,1.));
#1151 = DIRECTION('',(1.,0.,0.));
#1152 = ( GEOMETRIC_REPRESENTATION_CONTEXT(3) 
GLOBAL_UNCERTAINTY_ASSIGNED_CONTEXT((#1156)) 
GLOBAL_UNIT_ASSIGNED_CONTEXT((#1153,#1154,#1155)) REPRESENTATION_CONTEXT
('Context #1','3D Context with UNIT and UNCERTAINTY') );
#1153 = ( LENGTH_UNIT() NAMED_UNIT(*) SI_UNIT(.MILLI.,.METRE.) );
#1154 = ( NAMED_UNIT(*) PLANE_ANGLE_UNIT() SI_UNIT($,.RADIAN.) );
#1155 = ( NAMED_UNIT(*) SI_UNIT($,.STERADIAN.) SOLID_ANGLE_UNIT() );
#1156 = UNCERTAINTY_MEASURE_WITH_UNIT(LENGTH_MEASURE(2.E-05),#1153,
  'distance_accuracy_value','confusion accuracy');
#1157 = PRODUCT_RELATED_PRODUCT_CATEGORY('part',$,(#7));
#1158 = MECHANICAL_DESIGN_GEOMETRIC_PRESENTATION_REPRESENTATION('',(
    #1159),#1152);
#1159 = STYLED_ITEM('color',(#1160),#15);
#1160 = PRESENTATION_STYLE_ASSIGNMENT((#1161,#1167));
#1161 = SURFACE_STYLE_USAGE(.BOTH.,#1162);
#1162 = SURFACE_SIDE_STYLE('',(#1163));
#1163 = SURFACE_STYLE_FILL_AREA(#1164);
#1164 = FILL_AREA_STYLE('',(#1165));
#1165 = FILL_AREA_STYLE_COLOUR('',#1166);
#1166 = COLOUR_RGB('',0.678431390124,0.709803936702,0.741176476869);
#1167 = CURVE_STYLE('',#1168,POSITIVE_LENGTH_MEASURE(0.1),#1169);
#1168 = DRAUGHTING_PRE_DEFINED_CURVE_FONT('continuous');
#1169 = COLOUR_RGB('',9.803921802644E-02,9.803921802644E-02,
  9.803921802644E-02);
ENDSEC;
END-ISO-10303-21;
